HIERARCHY
ROOT Hips
{
  OFFSET -35.4901 99.2528 17.4586
  CHANNELS 6 Xposition Yposition Zposition Zrotation Xrotation Yrotation
  JOINT LeftUpLeg
  {
    OFFSET 8.64259 1.95398 -2.38835
    CHANNELS 3 Zrotation Xrotation Yrotation
    JOINT LeftLeg
    {
      OFFSET 43.7702 0 0
      CHANNELS 3 Zrotation Xrotation Yrotation
      JOINT LeftFoot
      {
        OFFSET 40.6238 0 0
        CHANNELS 3 Zrotation Xrotation Yrotation
        JOINT LeftToeBase
        {
          OFFSET 12.7242 0 0
          CHANNELS 3 Zrotation Xrotation Yrotation
          End Site
          {
            OFFSET 0 0 0
          }
        }
      }
    }
  }
  JOINT RightUpLeg
  {
    OFFSET -8.2249 1.95398 -2.59336
    CHANNELS 3 Zrotation Xrotation Yrotation
    JOINT RightLeg
    {
      OFFSET 43.5653 0 0
      CHANNELS 3 Zrotation Xrotation Yrotation
      JOINT RightFoot
      {
        OFFSET 40.6238 0 0
        CHANNELS 3 Zrotation Xrotation Yrotation
        JOINT RightToeBase
        {
          OFFSET 12.7242 0 0
          CHANNELS 3 Zrotation Xrotation Yrotation
          End Site
          {
            OFFSET 0 0 0
          }
        }
      }
    }
  }
  JOINT Spine
  {
    OFFSET 0.165834 0.87714 6.61349
    CHANNELS 3 Zrotation Xrotation Yrotation
    JOINT Spine1
    {
      OFFSET 7.38963 1.71661e-005 0
      CHANNELS 3 Zrotation Xrotation Yrotation
      JOINT Spine2
      {
        OFFSET 11.9445 1.14441e-005 0
        CHANNELS 3 Zrotation Xrotation Yrotation
        JOINT Spine3
        {
          OFFSET 14.7254 4.19617e-005 0
          CHANNELS 3 Zrotation Xrotation Yrotation
          JOINT Spine4
          {
            OFFSET 10.9679 0 0
            CHANNELS 3 Zrotation Xrotation Yrotation
            JOINT RightShoulder
            {
              OFFSET 2.46616 -1.6653 3.69651
              CHANNELS 3 Zrotation Xrotation Yrotation
              JOINT RightArm
              {
                OFFSET 13.0012 0 0
                CHANNELS 3 Zrotation Xrotation Yrotation
                JOINT RightForeArm
                {
                  OFFSET 28.7848 1.52588e-005 0
                  CHANNELS 3 Zrotation Xrotation Yrotation
                  JOINT RightHand
                  {
                    OFFSET 26.5688 1.52588e-005 0
                    CHANNELS 3 Zrotation Xrotation Yrotation
                    End Site
                    {
                      OFFSET 0 0 0
                    }
                  }
                }
              }
            }
            JOINT LeftShoulder
            {
              OFFSET 2.38034 -1.29275 -3.7523
              CHANNELS 3 Zrotation Xrotation Yrotation
              JOINT LeftArm
              {
                OFFSET 16.3182 6.10351e-005 0
                CHANNELS 3 Zrotation Xrotation Yrotation
                JOINT LeftForeArm
                {
                  OFFSET 27.0901 0 0
                  CHANNELS 3 Zrotation Xrotation Yrotation
                  JOINT LeftHand
                  {
                    OFFSET 24.5451 1.52588e-005 0
                    CHANNELS 3 Zrotation Xrotation Yrotation
                    End Site
                    {
                      OFFSET 0 0 0
                    }
                  }
                }
              }
            }
            JOINT Neck
            {
              OFFSET 5.0226 -0.0266342 0
              CHANNELS 3 Zrotation Xrotation Yrotation
              JOINT Head
              {
                OFFSET 6.69364 2.86102e-005 0
                CHANNELS 3 Zrotation Xrotation Yrotation
                End Site
                {
                  OFFSET 0 0 0
                }
              }
            }
          }
        }
      }
    }
  }
}
MOTION
Frames:	9
Frame Time:	0.0416667
-373.147 91.139 343.104 97.2555 28.0321 81.053 -171.611 -0.134616 95.3984 20.5671 63.1208 -22.8465 -123.873 -48.1084 -84.6628 130.556 -15.6119 -29.3071 173.342 4.47712 85.3512 -34.8772 -18.1739 -6.47053 82.0226 -8.97541 -11.7994 27.3714 -5.69394 15.0095 8.84425 3.58795 -88.7918 20.1456 17.9402 -1.43009 8.60164 17.8593 -2.24454 -14.9342 17.5128 4.20508 5.07842 17.5128 4.20508 73.8241 69.3953 -30.8953 104.999 22.2454 79.0505 -174.883 27.4574 179.995 2.53498 0.613587 -5.81895 -99.9864 -29.3801 54.5458 -36.5225 36.4344 10.4203 -22.3014 60.4056 -0.0865163 -60.7335 7.18994 -17.3674 -51.622 -12.8769 -34.812 -17.7267 -21.8008 -34.758 
-373.275 91.3811 343.116 97.2354 28.0835 80.9269 -171.711 -0.466702 95.0516 20.2988 62.9514 -22.6661 -114.445 -45.5487 -78.2999 130.433 -14.616 -26.8682 173.072 3.88347 85.2194 -33.6944 -17.571 -6.39362 83.2342 -10.0181 -13.6351 24.2736 -8.07141 19.9393 8.87026 3.6687 -88.7743 19.9779 18.0069 -1.36915 8.43505 17.9286 -2.18695 -15.1072 17.5579 4.28483 4.9055 17.5579 4.28482 73.5058 68.4666 -28.9751 105.215 21.3311 78.4933 -174.915 27.687 179.995 3.51408 0.727773 -5.54739 -100.158 -28.8164 53.908 -36.1073 35.3311 9.40525 -25.9208 63.6229 -0.0961712 -77.4086 16.1334 -24.6827 -51.2046 -13.1081 -34.7973 -17.3086 -21.9143 -34.971 
-373.633 91.8395 343.131 97.1734 28.2534 80.6069 -172.822 -1.4851 93.6139 15.0333 59.4446 -17.2271 -96.7436 -41.7623 -65.6026 129.395 -12.4118 -21.8937 172.06 2.37355 84.6697 -30.3642 -16.7182 -5.94652 86.4249 -13.6136 -19.4009 19.5728 -15.2898 33.6442 8.82457 3.89191 -88.7385 19.5013 17.9545 -1.17241 7.95793 17.8849 -1.98795 -15.5739 17.4492 4.45375 4.43877 17.4492 4.45374 73.1659 65.869 -24.2151 106.385 18.0131 75.8583 -174.611 28.6193 179.995 6.38899 1.07228 -5.12755 -100.153 -27.8418 53.3337 -34.8019 28.3487 5.8045 -31.0652 76.685 -0.19257 -97.0989 34.1452 -36.1607 -49.9748 -13.4268 -34.584 -15.7253 -22.0813 -34.6134 
-374.154 92.4518 343.174 97.0649 28.5695 80.1885 -174.712 -1.20719 91.325 4.58878 51.0318 -9.65689 -75.9815 -39.9062 -49.1334 126.298 -9.62549 -16.0712 170.977 -0.140574 84.0602 -23.7467 -14.4055 -5.6332 89.7862 -19.6139 -28.0063 26.0872 -23.7981 57.2746 8.69263 4.23495 -88.7226 18.7684 17.7298 -0.92348 7.2221 17.6715 -1.72849 -16.2786 17.1614 4.61527 3.73408 17.1614 4.61527 74.8926 61.3336 -19.1648 108.082 12.3005 71.5791 -174.203 29.7536 179.995 11.1156 1.59509 -5.39765 -100.272 -27.024 52.6151 -32.4685 11.6831 1.32652 153.312 78.054 -179.813 -94.9807 44.8222 -47.462 -47.8026 -14.0267 -33.7339 -13.3606 -22.2172 -33.4985 
-374.717 93.4664 343.21 96.8979 29.0615 79.7732 -176.033 -0.593078 89.4151 -4.01729 42.5418 -5.61956 -54.3596 -39.6632 -32.722 119.904 -6.83512 -10.4797 169.982 -3.17884 82.9705 -14.4583 -11.0068 -5.45039 90.8419 -26.7488 -37.2639 46.2697 -20.1558 81.6329 8.42031 4.67288 -88.7409 17.8312 17.2141 -0.64935 6.27786 17.1683 -1.42979 -17.1595 16.5896 4.70543 2.85311 16.5896 4.70542 79.8393 54.446 -15.0951 109.72 3.50608 65.8697 -173.647 30.8022 179.995 17.6582 2.03249 -7.39839 -100.158 -26.5391 52.5209 -29.0009 -40.5173 -3.72067 -166.753 40.2968 179.974 -84.7361 48.2424 -58.6426 -44.5139 -14.7275 -32.1066 -10.2403 -22.1388 -30.9365 
-375.246 94.1023 343.17 96.6494 29.7578 79.4658 -177.228 1.37625 87.7716 -14.3629 34.9652 -2.64991 -28.4385 -39.6425 -16.3911 110.233 -4.60367 -5.56792 169.657 -1.63448 80.9818 -14.3745 -6.02815 -5.063 94.5222 -33.3957 -44.3375 64.5337 -6.452 90.8312 9.81837 6.14749 -86.1501 14.2656 21.3202 4.70489 2.77422 21.5058 3.71801 -20.9036 18.892 11.1002 -0.890984 18.8919 11.1002 95.8793 34.5951 0.599915 101.891 -1.75031 61.8112 -170.402 32.6532 179.995 25.6293 1.76284 -12.0543 -87.5861 10.894 49.2828 -46.7806 20.194 -25.9833 151.242 63.2943 -179.912 -49.2686 47.2473 -94.8992 -25.2925 -21.9335 -64.8309 -6.20103 -28.5148 -15.2855 
-375.704 94.7477 343.143 96.2839 30.684 79.3757 -178.291 1.20265 86.4967 -19.8922 23.8066 -0.718665 -2.93187 -35.3654 -3.27092 98.8113 -3.38612 -3.27915 170.415 2.94107 78.7719 -21.4411 1.73357 -4.75488 101.135 -36.8391 -46.7008 77.5221 4.77988 87.105 9.06408 6.57086 -86.7615 13.5586 19.5439 3.96933 2.0381 19.6988 3.07158 -21.4724 17.425 9.82191 -1.45978 17.425 9.82191 106.05 24.3193 -0.262701 100.036 -15.0656 49.6734 -170.492 33.9824 179.995 33.5175 0.0273792 -19.5432 -89.483 5.53617 49.2757 -43.6814 27.4966 -23.7178 146.258 68.7441 -179.886 -35.1469 40.7663 -107.798 -21.4492 -22.5696 -56.0439 -3.26843 -25.5637 -12.3661 
-376.097 94.9739 343.287 95.746 31.8607 79.6273 -178.864 2.67159 86.8656 -25.8217 -4.06237 -0.714297 17.6771 -26.0464 -3.60104 90.4491 -2.64764 -12.6474 172.178 8.45582 76.5627 -31.7818 11.4808 -4.59291 108.435 -36.0951 -46.1347 87.1933 11.7443 80.6476 8.29789 7.04398 -87.2238 12.6357 17.8042 3.47006 1.08892 17.939 2.6577 -22.2575 15.9208 8.78441 -2.24481 15.9208 8.7844 115.546 13.2094 -2.33123 94.2304 -26.1732 37.1745 -170.72 36.1204 179.995 38.6719 -3.10243 -28.6778 -90.5145 2.07665 50.5984 -97.8077 -61.9142 -58.8382 -130.728 12.7115 177.229 -38.6825 42.3502 -103.97 -15.9262 -22.2676 -48.001 -0.606634 -22.4952 -8.84925 
-376.26 94.9546 343.5 95.2308 33.2439 80.0042 -179.36 4.29878 88.4946 -30.7485 -51.052 -0.456524 17.3693 -13.3094 -29.3978 107.288 -7.70473 -26.8596 174.22 12.8316 74.5208 -41.2925 22.217 -4.5467 113.957 -32.1554 -44.082 94.4308 15.1078 73.73 7.41054 7.535 -87.7572 11.6901 15.79 2.82273 0.116327 15.8985 2.10735 -23.0632 14.199 7.5262 -3.05058 14.199 7.5262 122.062 3.04164 -6.64358 85.9427 -34.4154 24.6341 -172.091 40.1012 179.994 40.086 -6.87133 -39.1673 -91.511 -2.28203 52.6914 135.748 -3.24266 -169.122 -32.7227 -52.431 -86.7346 -45.0174 48.7565 -102.968 -9.59639 -21.1262 -38.2676 1.21906 -19.1208 -5.71145 
